PathFileType	4	(X/Y/Z)	50_2_52_p0_0-518.trc
DataRate	CameraRate	NumFrames	NumMarkers	Units	OrigDataRate	OrigDataStartFrame	OrigNumFrames
40.0	40.0	5	27	m	40.0	259	519
Frame#	Time	RHip			RKnee			RAnkle			RBigToe			RSmallToe			RHeel			LHip			LKnee			LAnkle			LBigToe			LSmallToe			LHeel			Neck			Head			Nose			RShoulder			RElbow			RWrist			RThumb			RIndex			RPinky			LShoulder			LElbow			LWrist			LThumb			LIndex			LPinky			
		X1	Y1	Z1	X2	Y2	Z2	X3	Y3	Z3	X4	Y4	Z4	X5	Y5	Z5	X6	Y6	Z6	X7	Y7	Z7	X8	Y8	Z8	X9	Y9	Z9	X10	Y10	Z10	X11	Y11	Z11	X12	Y12	Z12	X13	Y13	Z13	X14	Y14	Z14	X15	Y15	Z15	X16	Y16	Z16	X17	Y17	Z17	X18	Y18	Z18	X19	Y19	Z19	X20	Y20	Z20	X21	Y21	Z21	X22	Y22	Z22	X23	Y23	Z23	X24	Y24	Z24	X25	Y25	Z25	X26	Y26	Z26	X27	Y27	Z27	
259	6.475	0.30593639508648485	0.7291908882683635	0.5134729739271302	0.29977077273063985	0.8266731816360523	0.9243733295308355	0.3156566304882328	1.0191873586874751	1.3527898015205	0.26167415560645335	0.8574813802838851	1.4086336165242819	0.33136954199962076	0.8393894887889723	1.4103321665349118	0.2870523160542048	1.1253831639200444	1.3985004591034897	0.1302340283966925	0.7016857139217936	0.5173946195112982	0.1211825447899483	0.8405624099440867	0.9266737352880118	0.10072031111231021	0.9975076560834376	1.3286956318122713	0.10280093616635569	0.8612684260467344	1.3968078325066187	0.0390398729294801	0.8768458131838225	1.384533491848283	0.114330006195539	1.0703574838822925	1.3909419831070962	0.19647966920475748	0.6086129783593589	-0.005957603933026399	0.20824793304065142	0.5125281892784394	-0.2185315284239377	0.22105969466714778	0.4734162992053193	-0.09378444333345518	0.33933177488314387	0.5651311873145303	0.05598581999025865	0.4848792570085412	0.45456585294062957	0.16916537732324602	0.32394349294419034	0.4399878108786589	0.03663351848910953	0.23606448589091736	0.4963741440804884	-0.019559700086948646	0.23956837753062157	0.49255631763304025	-0.03864331872924028	0.2813271476992183	0.4393524607222932	0.0005073050093064136	0.055842163732470536	0.6374503347848911	0.07894842084986088	-0.035349347885003275	0.7406810171669976	0.32752721836495396	0.12857647685687484	0.6172414328124037	0.36417653988006343	0.18782096226097394	0.4943272249963326	0.3048840142249272	0.2360962833572961	0.5975226794559195	0.3391391757132801	0.23341543311055926	0.6255303687813147	0.4068267325557689
260	6.5	0.30665965071662166	0.7315539926366901	0.5174616082957705	0.3034279525064873	0.8383095417049145	0.9222269283138126	0.3156930072863923	1.0191682555165131	1.3527794656334582	0.2616829775632179	0.8572380129932328	1.4086228592360475	0.3359895195833084	0.8543102322879155	1.4150313296353414	0.28611570953205295	1.1272340427570353	1.4036136251254903	0.1266546703199649	0.7167657192037118	0.5220408922115437	0.12121437576712314	0.8404655244096625	0.9266200093630036	0.10067839471250876	0.9972973653040942	1.3286129043830268	0.0993174143190222	0.8458839781534688	1.3919400200847754	0.039003766964756374	0.8761374019188378	1.3843394472008095	0.11308068186088976	1.0713647244944657	1.3958062660419661	0.1963093806450464	0.6085121769967764	-0.005988093618037081	0.2084339887576484	0.5124576527718514	-0.21865464552301406	0.22111130955709535	0.4732290270212891	-0.09365822763224269	0.33934184916866444	0.565158027415854	0.05607453151544574	0.4848778591372571	0.4544272414438111	0.16926235725224592	0.3233052657876279	0.43880949245055156	0.03693767029437808	0.23932611159748216	0.5058598489646292	-0.020733173914952573	0.23987846373684138	0.4939920036669683	-0.035770528091000287	0.281118589859896	0.43914467033039806	0.00044258227579886406	0.0558609189372346	0.6375235081605936	0.07889204007057872	-0.03530309182154038	0.740825162652084	0.3274921123173598	0.12855709898864992	0.6172895158227258	0.3641284127192386	0.18426196878350817	0.4918424932299836	0.30481966673305094	0.23605930530320457	0.5974103278715176	0.3391230639118936	0.23339850012953517	0.6254892901689862	0.40686812115888654
261	6.525	0.3015726628359759	0.7161009782583755	0.5130520789237154	0.2998743717536824	0.8259822102289047	0.9238987492943475	0.3157092105499342	1.0192388017462126	1.3528497273182107	0.26288785655926006	0.8590733505008378	1.4175315389405843	0.33131218739760854	0.8391011510770581	1.4104451868349055	0.28613512805761393	1.127485994153025	1.4037681098796009	0.13050944894355984	0.7017205481715445	0.5213132080879368	0.12142843819441063	0.8407945198119575	0.9267242489520916	0.10074268167096026	0.9977020474918095	1.3288585202826704	0.09931109978550103	0.845745237773177	1.391899966337877	0.03911166574542453	0.8760791873081404	1.3843310935246895	0.11491638339813466	1.073157736060446	1.3954923349741688	0.19638308827487178	0.6085909823626583	-0.00592544903951507	0.20840222914609224	0.5123119642668623	-0.2185532974014278	0.22117197359724744	0.47316433979590217	-0.09357590523152269	0.33914377132155465	0.565769184951988	0.059737140204314775	0.4848499048701667	0.4544810583816758	0.16929502102000213	0.3237084726477651	0.44040208065664505	0.040041520457430556	0.23933321768446025	0.5056469203050248	-0.020906344610195464	0.24283260967706055	0.48044315867685944	-0.033791559831836626	0.2810830507793396	0.4391472072174426	0.0004245096377021333	0.055856631003621746	0.6374424384823053	0.07891733776907658	-0.035631223058344486	0.7386609616286868	0.3235593818827329	0.12855809471416896	0.6171146318571272	0.3641796736408546	0.1843192359819661	0.49186596110816394	0.3048263362802293	0.23608235188954424	0.5973445029809106	0.3391875322517932	0.23341204994620163	0.6255742641445731	0.40698360895148217
262	6.55	0.30158907569552335	0.7159670413650587	0.5130214755744237	0.3036735700785835	0.8378968991004618	0.9215843563742092	0.31571236700625305	1.0192548208516115	1.3528256199125268	0.2619109928057978	0.856154975278154	1.4124821284867075	0.33143488936208404	0.8392037865978667	1.4103028901480292	0.28615776651292835	1.127278729707948	1.4035794971999098	0.1304383614977731	0.7017581210819979	0.5212512512972485	0.1221625190099672	0.8383252455806676	0.92245773243558	0.10056242073954709	0.9975015674712948	1.3286208464928357	0.0992901027375043	0.845688619886121	1.3918854345856488	0.0389618890720558	0.8762458367526177	1.3844022277175205	0.113988298314812	1.0697536782571793	1.3907635919083547	0.19640955141220945	0.6084797536031146	-0.005910517806485546	0.2117919255600589	0.49928999424042053	-0.21595998078222722	0.2214674112129501	0.4744551583785401	-0.09022723818395836	0.33913264908420176	0.5656869575573453	0.059776241481449895	0.4848557712885417	0.45442022724037945	0.16938833440778686	0.3235442336563023	0.4399827778501673	0.03646679132407801	0.2395096279756656	0.5066775668861695	-0.018898547071758177	0.2422359626374983	0.47995134944684165	-0.03328993979836644	0.28083276443511673	0.43869167904095346	0.00045339863444135566	0.05587954199903575	0.6375543316847824	0.07889203604483372	-0.03561655435865675	0.7385813860854213	0.3235954705935034	0.12855449842660585	0.6171505797875306	0.3641998776390533	0.18778041647582513	0.4942354036425207	0.3048603092111499	0.2324937169648341	0.5859528576562989	0.33936885226636226	0.23338336221007205	0.6255340717586687	0.4069405563567015
263	6.575	0.30153698131809037	0.7160587315446894	0.5129580363749081	0.29887693177378943	0.823580437266363	0.9195851465016678	0.3157028886748248	1.0192641971463965	1.3528722298680744	0.26531251451869015	0.8390160266325928	1.4069455007749365	0.3360621177851363	0.8544361609496176	1.4151064081338511	0.28611517883873744	1.1272650245936757	1.4037015638060202	0.13022224177189004	0.7014826649396939	0.5172727485618854	0.1254158540452217	0.8234103810563037	0.9236975222039568	0.1007245481396557	0.9976852204361875	1.3288766026480865	0.09439714143078876	0.8438693108692542	1.3913762487941894	0.038992092372897406	0.8759866248354093	1.3843759654746643	0.11363485367586387	1.0751912488445634	1.4009225987212588	0.19633788978379196	0.6086240373566174	-0.005925403724369193	0.2118237746108591	0.4992300845861299	-0.2160004268412266	0.22122851068550384	0.4729393512653963	-0.09347820274838486	0.3391172052908637	0.565682580251828	0.0597677499160239	0.4848763277021909	0.45442173566366095	0.16941620867392612	0.32354035914253754	0.4399332247015534	0.036516603722258886	0.23945657734056164	0.506704849353349	-0.018859874275906966	0.242756489470786	0.4812747927131052	-0.030699467066584874	0.281171341043831	0.44008757805804705	0.002620984175877919	0.055868206366251505	0.6374898946242993	0.07888690366739068	-0.04018011020739853	0.7533053646329215	0.3232745019455914	0.12856866824806107	0.6171649210922422	0.3642123816266033	0.18769120102668935	0.4942247845899718	0.30490215846929564	0.23245748837649297	0.5860852913539795	0.3394029882382619	0.23337624724819006	0.6256236831731551	0.4069717305833137
